<svg width="168" height="28" viewBox="0 0 168 28" fill="none" xmlns="http://www.w3.org/2000/svg">
<path d="M52.106 9.26673C50.9357 9.26673 49.8901 9.49696 48.9691 9.95742C48.0482 10.3987 47.3863 11.0414 46.9834 11.8856V21.0084H43.1271V5.9284H46.6669V9.15161C47.1849 8.11558 47.8564 7.30019 48.6814 6.70543C49.5255 6.11067 50.4081 5.78451 51.329 5.72695C51.7319 5.72695 51.9909 5.73655 52.106 5.75573V9.26673Z" fill="#14183E"/>
<path d="M61.0528 21.2962C59.422 21.2962 58.0119 20.9413 56.8223 20.2314C55.652 19.5215 54.7407 18.5814 54.0884 17.4111C53.4361 16.2216 53.1099 14.9361 53.1099 13.5547C53.1099 12.135 53.4265 10.8304 54.0596 9.64085C54.7119 8.43215 55.6328 7.47286 56.8223 6.76298C58.0119 6.03392 59.4316 5.66939 61.0816 5.66939C62.7316 5.66939 64.1417 6.03392 65.312 6.76298C66.4824 7.47286 67.3745 8.42255 67.9885 9.61207C68.6216 10.7824 68.9382 12.0487 68.9382 13.4109C68.9382 13.9097 68.9094 14.3414 68.8518 14.7059H57.1965C57.2924 15.8762 57.7241 16.7971 58.4915 17.4686C59.2781 18.1401 60.1799 18.4759 61.1967 18.4759C61.9641 18.4759 62.6836 18.2936 63.3551 17.9291C64.0458 17.5454 64.5158 17.0466 64.7653 16.4326L68.0748 17.3535C67.5184 18.5047 66.6263 19.4544 65.3984 20.2026C64.1705 20.9317 62.722 21.2962 61.0528 21.2962ZM57.1101 12.2597H64.9955C64.8804 11.1277 64.4487 10.2164 63.7004 9.52573C62.9714 8.81586 62.0792 8.46093 61.024 8.46093C59.988 8.46093 59.0959 8.81586 58.3476 9.52573C57.6186 10.2164 57.2061 11.1277 57.1101 12.2597Z" fill="#14183E"/>
<path d="M89.572 5.9284H93.2269L86.9244 21.0084H83.7012L81.1686 14.5332L78.6937 21.0084H75.4417L69.1679 5.9284H72.7941L77.2835 17.3248L79.039 12.4036L76.4202 5.95718H79.6146L81.1686 10.5618L82.7515 5.95718H85.9459L83.327 12.4036L85.1113 17.3248L89.572 5.9284Z" fill="#14183E"/>
<path d="M93.606 16.5477C93.606 15.5693 93.8746 14.7155 94.4118 13.9864C94.9682 13.2382 95.7356 12.6626 96.7141 12.2597C97.6925 11.8568 98.8149 11.6554 100.081 11.6554C100.714 11.6554 101.357 11.7129 102.009 11.828C102.662 11.924 103.228 12.0679 103.707 12.2597V11.4539C103.707 10.4946 103.419 9.75596 102.844 9.23795C102.288 8.71993 101.453 8.46093 100.34 8.46093C99.5152 8.46093 98.7286 8.60482 97.9803 8.89261C97.2321 9.18039 96.4455 9.60248 95.6205 10.1589L94.383 7.62634C95.3806 6.97403 96.3975 6.48479 97.4335 6.15863C98.4887 5.83247 99.5919 5.66939 100.743 5.66939C102.892 5.66939 104.561 6.2066 105.751 7.281C106.959 8.3554 107.564 9.89026 107.564 11.8856V16.6916C107.564 17.1137 107.631 17.4111 107.765 17.5838C107.899 17.7372 108.139 17.8332 108.485 17.8715V21.0084C108.139 21.0852 107.823 21.1331 107.535 21.1523C107.266 21.1907 107.036 21.2099 106.844 21.2099C106.077 21.2099 105.492 21.0372 105.089 20.6919C104.686 20.3465 104.446 19.9244 104.369 19.4256L104.283 18.6486C103.611 19.5119 102.786 20.1738 101.808 20.6343C100.849 21.0756 99.8605 21.2962 98.8437 21.2962C97.8268 21.2962 96.9251 21.0948 96.1385 20.6919C95.3519 20.2698 94.7283 19.7038 94.2679 18.9939C93.8266 18.2649 93.606 17.4495 93.606 16.5477ZM102.988 17.3248C103.467 16.8643 103.707 16.423 103.707 16.0009V14.4757C102.71 14.0728 101.702 13.8713 100.686 13.8713C99.6687 13.8713 98.8437 14.0919 98.2105 14.5332C97.5774 14.9553 97.2609 15.5213 97.2609 16.2312C97.2609 16.8067 97.4911 17.3248 97.9515 17.7852C98.412 18.2457 99.0739 18.4759 99.9373 18.4759C100.513 18.4759 101.069 18.3704 101.606 18.1593C102.163 17.9483 102.623 17.6701 102.988 17.3248Z" fill="#14183E"/>
<path d="M125.182 21.0084H121.326V12.5475C121.326 11.3388 121.115 10.4562 120.693 9.89986C120.271 9.34347 119.686 9.06528 118.937 9.06528C118.419 9.06528 117.892 9.19958 117.355 9.46818C116.837 9.73678 116.367 10.1109 115.944 10.5905C115.522 11.051 115.215 11.5882 115.024 12.2022V21.0084H111.167V5.9284H114.649V8.71993C115.206 7.77983 116.012 7.04118 117.067 6.50398C118.122 5.94759 119.312 5.66939 120.635 5.66939C121.576 5.66939 122.343 5.84207 122.938 6.18741C123.532 6.51357 123.993 6.96444 124.319 7.54001C124.645 8.0964 124.866 8.72953 124.981 9.4394C125.115 10.1493 125.182 10.8687 125.182 11.5978V21.0084Z" fill="#14183E"/>
<path d="M134.435 21.0948C133.092 21.0948 131.912 20.7494 130.895 20.0587C129.879 19.368 129.082 18.4471 128.507 17.296C127.931 16.1256 127.643 14.8498 127.643 13.4684C127.643 12.0103 127.941 10.6961 128.536 9.52573C129.13 8.33622 129.955 7.39611 131.011 6.70543C132.066 6.01474 133.284 5.66939 134.665 5.66939C135.836 5.66939 136.862 5.938 137.745 6.4752C138.627 6.99321 139.356 7.69349 139.932 8.57604V5.9284H143.299V20.289C143.299 21.7854 142.935 23.0613 142.205 24.1165C141.496 25.1909 140.508 26.0063 139.241 26.5627C137.975 27.1383 136.536 27.4261 134.924 27.4261C133.274 27.4261 131.884 27.1479 130.752 26.5915C129.639 26.0543 128.68 25.2868 127.874 24.2892L129.975 22.2459C130.55 22.9558 131.27 23.5122 132.133 23.9151C133.015 24.318 133.946 24.5194 134.924 24.5194C135.73 24.5194 136.469 24.3659 137.14 24.059C137.831 23.7712 138.388 23.3107 138.81 22.6776C139.232 22.0636 139.443 21.2674 139.443 20.289V18.3896C138.944 19.2529 138.234 19.9244 137.313 20.4041C136.411 20.8645 135.452 21.0948 134.435 21.0948ZM135.73 18.0154C136.574 18.0154 137.332 17.766 138.004 17.2672C138.694 16.7684 139.174 16.1736 139.443 15.4829V11.8856C139.097 11.003 138.551 10.2932 137.802 9.75596C137.073 9.21876 136.306 8.95016 135.5 8.95016C134.713 8.95016 134.023 9.1708 133.428 9.61207C132.852 10.0533 132.402 10.6289 132.075 11.3388C131.749 12.0295 131.586 12.7777 131.586 13.5835C131.586 14.4085 131.768 15.1568 132.133 15.8283C132.497 16.4998 132.987 17.037 133.601 17.4399C134.234 17.8236 134.944 18.0154 135.73 18.0154Z" fill="#14183E"/>
<path d="M160.79 21.0084H156.934V12.5475C156.934 11.3772 156.704 10.5042 156.243 9.92864C155.802 9.35306 155.188 9.06528 154.402 9.06528C153.922 9.06528 153.423 9.19958 152.905 9.46818C152.406 9.73678 151.946 10.1109 151.524 10.5905C151.121 11.051 150.823 11.5882 150.632 12.2022V21.0084H146.775V0H150.632V8.71993C151.188 7.76064 151.946 7.0124 152.905 6.4752C153.864 5.938 154.91 5.66939 156.042 5.66939C157.327 5.66939 158.315 5.95718 159.006 6.53276C159.697 7.10833 160.167 7.84698 160.416 8.74871C160.666 9.65044 160.79 10.6001 160.79 11.5978V21.0084Z" fill="#14183E"/>
<path d="M164.144 21.0084V5.9284H168V21.0084H164.144Z" fill="#14183E"/>
<path d="M35.8801 7.50736L32.9854 1.72914C32.8112 1.38065 32.4346 1.1783 32.0467 1.22889L17.989 3.02194L23.1433 11.5712C23.3569 11.9253 23.7841 12.094 24.1832 11.9815L35.3068 8.80577C35.8633 8.64277 36.1331 8.02448 35.8801 7.50736ZM2.99266 1.72914L0.0979332 7.50736C-0.160625 8.02448 0.114796 8.64277 0.665637 8.80015L11.7893 11.9759C12.1883 12.0883 12.6155 11.9197 12.8291 11.5656L17.989 3.02194L3.92572 1.22889C3.53788 1.18392 3.16691 1.38065 2.99266 1.72914Z" fill="#FF7468"/>
<path d="M23.9301 13.9262C22.9802 13.9262 22.0865 13.4203 21.6031 12.6109L17.9889 6.61914L14.3803 12.6109C13.8913 13.426 12.9976 13.9318 12.0477 13.9318C11.7947 13.9318 11.5418 13.8981 11.3001 13.825L3.59955 11.6217V21.6268C3.59955 22.453 4.16163 23.1725 4.95979 23.3692L17.112 26.4101C17.6854 26.5506 18.2868 26.5506 18.8545 26.4101L31.018 23.3692C31.8161 23.1669 32.3782 22.4474 32.3782 21.6268V11.6217L24.6777 13.8194C24.436 13.8925 24.183 13.9262 23.9301 13.9262Z" fill="#5AACA8"/>
</svg>
