<svg width="80" height="80" viewBox="0 0 80 80" fill="none" xmlns="http://www.w3.org/2000/svg">
<circle cx="40" cy="40" r="40" fill="#FF7152" fill-opacity="0.1"/>
<path d="M53.0947 32.1484C52.6863 30.1451 50.9117 28.6328 48.7889 28.6328H45.2733C43.1505 28.6328 41.376 30.1451 40.9676 32.1484H53.0947Z" fill="#FF7468"/>
<path d="M53.1836 33.9062H40.8789V34.7852C40.8789 35.4598 41.133 36.076 41.5518 36.543C41.133 37.0099 40.8789 37.6261 40.8789 38.3008C40.8789 38.9754 41.133 39.5917 41.5518 40.0586C41.133 40.5255 40.8789 41.1418 40.8789 41.8164C40.8789 42.4911 41.133 43.1073 41.5518 43.5742C41.133 44.0412 40.8789 44.6574 40.8789 45.332C40.8789 46.0067 41.133 46.6229 41.5518 47.0898C41.133 47.5568 40.8789 48.173 40.8789 48.8477V52.3633C40.8789 53.8172 42.0617 55 43.5156 55H50.5469C52.0008 55 53.1836 53.8172 53.1836 52.3633V48.8477C53.1836 48.173 52.9295 47.5568 52.5107 47.0898C52.9295 46.6229 53.1836 46.0067 53.1836 45.332C53.1836 44.6574 52.9295 44.0412 52.5107 43.5742C52.9295 43.1073 53.1836 42.4911 53.1836 41.8164C53.1836 41.1418 52.9295 40.5255 52.5107 40.0586C52.9295 39.5917 53.1836 38.9754 53.1836 38.3008C53.1836 37.6261 52.9295 37.0099 52.5107 36.543C52.9295 36.076 53.1836 35.4598 53.1836 34.7852V33.9062Z" fill="#FF7468"/>
<path d="M37.3633 39.1797V36.543C37.3633 36.0572 36.9702 35.6641 36.4844 35.6641H27.6953C27.2095 35.6641 26.8164 36.0572 26.8164 36.543V39.1797H37.3633Z" fill="#FF7468"/>
<path d="M26.8164 40.9375V52.3633C26.8164 53.8172 27.9992 55 29.4531 55H34.7266C36.1805 55 37.3633 53.8172 37.3633 52.3633V40.9375H26.8164Z" fill="#FF7468"/>
<path d="M49.668 26.875V25.8789C49.668 25.3931 49.2749 25 48.7891 25H45.2734C44.7876 25 44.3945 25.3931 44.3945 25.8789V26.875H49.668Z" fill="#FF7468"/>
</svg>
