<svg width="80" height="80" viewBox="0 0 80 80" fill="none" xmlns="http://www.w3.org/2000/svg">
<circle opacity="0.1" cx="40" cy="40" r="40" fill="#5AACA8"/>
<g clip-path="url(#clip0)">
<path d="M57.2962 34.0249L40.3509 28.0461C40.1239 27.966 39.8762 27.966 39.6491 28.0461L22.7038 34.0249C22.2825 34.1735 22.0006 34.5715 22 35.0182C21.9994 35.465 22.2805 35.8636 22.7014 36.0132L39.6468 42.0374C39.761 42.078 39.8805 42.0984 40 42.0984C40.1195 42.0984 40.239 42.078 40.3532 42.0374L57.2986 36.0132C57.7195 35.8636 58.0005 35.465 58 35.0182C57.9994 34.5715 57.7175 34.1735 57.2962 34.0249Z" fill="#5AACA8"/>
<path d="M55.4667 48.1028V38.9032L53.3573 39.653V48.1028C52.722 48.4685 52.2938 49.1537 52.2938 49.9395C52.2938 50.7251 52.722 51.4104 53.3573 51.7761V56.9593C53.3573 57.5417 53.8295 58.014 54.412 58.014C54.9945 58.014 55.4667 57.5417 55.4667 56.9593V51.7762C56.102 51.4106 56.5302 50.7252 56.5302 49.9395C56.5302 49.1538 56.1021 48.4685 55.4667 48.1028Z" fill="#5AACA8"/>
<path d="M40.0002 44.2078C39.6381 44.2078 39.2816 44.1463 38.9403 44.025L29.4142 40.6384V45.2796C29.4142 46.415 30.5987 47.3753 32.9349 48.1336C34.9713 48.7945 37.4804 49.1585 40.0002 49.1585C42.5199 49.1585 45.029 48.7945 47.0654 48.1336C49.4016 47.3753 50.5861 46.415 50.5861 45.2796V40.6384L41.06 44.025C40.7187 44.1463 40.3622 44.2078 40.0002 44.2078Z" fill="#5AACA8"/>
</g>
<defs>
<clipPath id="clip0">
<rect width="36" height="36" fill="white" transform="translate(22 25)"/>
</clipPath>
</defs>
</svg>
