<svg width="80" height="80" viewBox="0 0 80 80" fill="none" xmlns="http://www.w3.org/2000/svg">
<circle opacity="0.1" cx="40" cy="40" r="40" fill="#5AACA8"/>
<g clip-path="url(#clip0)">
<path d="M48.2286 28.4071C48.0839 26.8696 48.2286 25.7285 48.6357 25.316C48.8369 25.1132 49.1107 24.9991 49.3964 24.9991C49.6821 24.9991 49.9559 25.1132 50.1571 25.316C50.4783 25.6677 50.6905 26.105 50.7678 26.575C50.807 26.7644 50.9453 26.918 51.1295 26.9768C51.3138 27.0356 51.5154 26.9906 51.6571 26.8589C52.1071 26.4464 52.9589 25.841 53.5643 26.4518C54.1696 27.0625 53.5643 27.9035 53.1571 28.3535C53.0255 28.4952 52.9804 28.6969 53.0392 28.8812C53.0981 29.0654 53.2516 29.2037 53.4411 29.2428C53.9139 29.3228 54.3532 29.5388 54.7053 29.8643C54.9119 30.0724 55.0191 30.3592 55 30.6518C54.9849 30.9753 54.833 31.2772 54.5821 31.4821C53.7893 32.125 52.4393 32.0178 51.6893 31.9268C50.7668 31.8027 49.8312 32.0261 49.0643 32.5536L47.4571 30.9464C48.0152 30.2223 48.2895 29.3193 48.2286 28.4071ZM53.3928 38.6607C53.3928 38.7518 53.3928 38.8375 53.3929 38.9286H47.6339L50.1464 37.3696C50.7159 37.0209 51.0903 36.4267 51.1589 35.7625C51.1696 35.6431 51.1696 35.523 51.1589 35.4036C52.5088 35.9186 53.3986 37.2159 53.3928 38.6607ZM44.3661 29.9285C44.676 29.8901 44.9864 29.9968 45.2071 30.2178L49.8036 34.8089C50.0246 35.0296 50.1313 35.34 50.0928 35.65C50.0495 35.9882 49.8516 36.287 49.5571 36.4589L47.4143 37.7714L45.5661 35.9232C45.4655 35.8218 45.3285 35.7647 45.1857 35.7647C45.0429 35.7647 44.9059 35.8218 44.8053 35.9232C44.5976 36.1321 44.5976 36.4696 44.8053 36.6786L46.4821 38.3553L45.6036 38.9286H38.2803L40.5036 35.3553L42.2018 37.0589C42.3029 37.1592 42.4397 37.2151 42.5821 37.2143C42.7245 37.2151 42.8614 37.1592 42.9625 37.0589C43.0639 36.9583 43.1209 36.8214 43.1209 36.6786C43.1209 36.5357 43.0639 36.3988 42.9625 36.2982L41.0714 34.4232L42.8125 31.6214L45.2232 34.0268C45.4321 34.2345 45.7696 34.2345 45.9786 34.0268C46.1863 33.8178 46.1863 33.4804 45.9786 33.2714L43.3964 30.6839L43.5518 30.4375C43.7277 30.1489 44.0295 29.9603 44.3661 29.9285ZM35.1786 29.8214C37.4824 29.7777 39.6037 31.0701 40.6214 33.1375L39.8875 34.3107C39.5155 32.8376 38.4096 31.6609 36.9625 31.1982C36.7779 31.1148 36.5622 31.1426 36.4048 31.2701C36.2474 31.3975 36.1754 31.6028 36.2185 31.8006C36.2617 31.9985 36.4128 32.1551 36.6089 32.2053C37.9375 32.5997 38.8692 33.794 38.9286 35.1786C38.9259 35.5078 38.8661 35.8341 38.7518 36.1428L37.0161 38.9286H32.0553C32.7718 37.3812 32.6063 35.5688 31.6214 34.1768C32.0153 33.2395 32.7974 32.5199 33.7643 32.2053C34.034 32.099 34.1703 31.7974 34.0717 31.5247C33.973 31.252 33.6753 31.1073 33.4 31.1982C32.3242 31.5652 31.4206 32.3144 30.8607 33.3035C30.5869 33.0756 30.2968 32.8679 29.9928 32.6821C31.0929 30.8776 33.0654 29.7895 35.1786 29.8214ZM25.1446 31.8357C26.7786 32.3018 29.7839 33.3732 30.6571 34.6536C31.6161 36.0625 31.6643 37.7821 30.8339 38.8214L28.6268 36.175C28.5043 36.0276 28.3125 35.9568 28.1236 35.9892C27.9347 36.0216 27.7775 36.1523 27.7111 36.332C27.6447 36.5118 27.6793 36.7133 27.8018 36.8607L29.5268 38.9286H26.6982C26.302 38.6302 25.958 38.2681 25.6803 37.8571C24.8125 36.5821 24.9571 33.4803 25.1446 31.8357ZM53.9286 42.1428H50.7143C50.4184 42.1428 50.1786 42.3827 50.1786 42.6786C50.1786 42.9744 50.4184 43.2143 50.7143 43.2143H53.418V44.8214C53.418 50.4429 48.8357 55 43.2143 55H36.7857C31.1642 55 26.582 50.4345 26.582 44.813V43.2143H47.5C47.5 43.2143 48.0357 42.9744 48.0357 42.6786C48.0357 42.3827 47.7959 42.1428 47.5 42.1428H26.0714C25.4797 42.1428 25 41.6631 25 41.0714C25 40.4797 25.4797 40 26.0714 40H53.9286C54.5203 40 55 40.4797 55 41.0714C55 41.6631 54.5203 42.1428 53.9286 42.1428Z" fill="#5AACA8"/>
<rect x="26.582" y="42.0508" width="26.8359" height="1.69922" fill="#5AACA8"/>
</g>
<defs>
<clipPath id="clip0">
<rect width="30" height="30" fill="white" transform="translate(25 25)"/>
</clipPath>
</defs>
</svg>
