<svg width="80" height="80" viewBox="0 0 80 80" fill="none" xmlns="http://www.w3.org/2000/svg">
<circle cx="40" cy="40" r="40" fill="#FF7152" fill-opacity="0.1"/>
<path d="M41.1323 46.8324C42.8212 45.1437 44.2895 43.6754 45.5677 42.3973V36.4416C45.5677 35.1222 44.3251 33.9648 42.9085 33.9648H41.8175C41.8175 33.3583 41.8175 32.5613 41.8175 31.9727H42.3969C43.3369 31.9727 44.1613 31.1645 44.1613 30.2433V26.8412C44.1613 25.9721 43.4068 25 42.3969 25H40.1093V30.2148H38.3514V25H36.1921V30.2148H34.4342V25H32.1336V30.2148H30.3757V25H28.2294C27.2195 25 26.4649 25.9721 26.4649 26.8412V30.2433C26.4649 31.1645 27.2894 31.9727 28.2294 31.9727H28.6916V33.9648H27.7763C26.4052 33.9648 25 35.0948 25 36.4416V52.4207C25 53.7224 26.3752 55 27.7763 55H41.3285L41.1323 54.8038C38.9345 52.6062 38.9345 49.0302 41.1323 46.8324ZM36.1921 45.3613V48.2982C36.1921 48.7836 35.7986 49.1771 35.3131 49.1771C34.8277 49.1771 34.4342 48.7836 34.4342 48.2982V45.3613H31.4971C31.0117 45.3613 30.6181 44.9678 30.6181 44.4824C30.6181 43.997 31.0117 43.6035 31.4971 43.6035H34.4342V40.6666C34.4342 40.1812 34.8277 39.7877 35.3131 39.7877C35.7986 39.7877 36.1921 40.1812 36.1921 40.6666V43.6035H39.1292C39.6146 43.6035 40.0081 43.997 40.0081 44.4824C40.0081 44.9678 39.6146 45.3613 39.1292 45.3613H36.1921Z" fill="#FF7468"/>
<path d="M53.8656 42.6772L53.5626 42.3742C52.0459 40.8576 49.5845 40.8666 48.077 42.374L45.9124 44.5385L51.7013 50.3269L53.8657 48.1627C55.3781 46.6504 55.3781 44.1896 53.8656 42.6772Z" fill="#FF7468"/>
<path d="M42.3753 48.0754C40.8628 49.5878 40.8628 52.0486 42.3753 53.5609L42.6783 53.864C44.1907 55.3763 46.6517 55.3763 48.1641 53.864L50.4582 51.57L44.6694 45.7815L42.3753 48.0754Z" fill="#FF7468"/>
</svg>
